# WaveFront *.obj file (generated by CINEMA 4D)

mtllib ./Teclado.mtl

v 103.75042724609375 65.97869873046875 -47.31764602661133
v 103.75042724609375 68.37870025634766 -47.31764602661133
v 49.75043106079102 65.97869873046875 -47.29420852661133
v 49.75043106079102 68.37870025634766 -47.29420852661133
v 49.75824356079102 65.97869873046875 -29.29421043395996
v 49.75824356079102 68.37870025634766 -29.29421043395996
v 103.75823974609375 65.97869873046875 -29.31764793395996
v 103.75823974609375 68.37870025634766 -29.31764793395996
# 8 vertices

vn -0.00043402778101 0 -0.99999988079071
vn -0.99999988079071 0 0.00043402775191
vn 0.00043402778101 0 0.99999988079071
vn 0.99999988079071 0 -0.00043402775191
vn 0 1 0
vn 0 -1 0
# 6 normals

vt 0 0 0
vt 0 1 0
vt 1 1 0
vt 1 0 0
# 4 texture coordinates

o Teclado
usemtl PC
f 3/4/1 4/3/1 2/2/1 1/1/1
f 5/4/2 6/3/2 4/2/2 3/1/2
f 7/4/3 8/3/3 6/2/3 5/1/3
f 1/4/4 2/3/4 8/2/4 7/1/4

usemtl Teclado
f 4/4/5 6/3/5 8/2/5 2/1/5

usemtl default
f 5/4/6 3/3/6 1/2/6 7/1/6

